<?xml version="1.0" encoding="utf-8"?>
<!-- Generator: Adobe Illustrator 16.0.0, SVG Export Plug-In . SVG Version: 6.00 Build 0)  -->
<!DOCTYPE svg PUBLIC "-//W3C//DTD SVG 1.1//EN" "http://www.w3.org/Graphics/SVG/1.1/DTD/svg11.dtd">
<svg version="1.1" id="Layer_1" xmlns="http://www.w3.org/2000/svg" xmlns:xlink="http://www.w3.org/1999/xlink" x="0px" y="0px"
	 width="84px" height="66px" viewBox="0 0 84 66" enable-background="new 0 0 84 66" xml:space="preserve">
<circle fill="none" stroke="#808080" stroke-miterlimit="10" cx="33.579" cy="32.924" r="32"/>
<ellipse fill="none" stroke="#CCCCCC" stroke-width="0.8" stroke-miterlimit="10" cx="33.579" cy="32.924" rx="29.053" ry="29.059"/>
<circle fill="#FFFFFF" stroke="#808080" stroke-miterlimit="10" cx="50.421" cy="32.924" r="32"/>
<ellipse fill="none" stroke="#CCCCCC" stroke-width="0.8" stroke-miterlimit="10" cx="50.421" cy="32.924" rx="29.053" ry="29.059"/>
<g>
	<g>
		<g>
			<path fill="none" stroke="#999999" stroke-width="0.7" stroke-miterlimit="10" d="M61.322,29.355
				c0.509-3.295-2.086-5.065-5.637-6.247l1.15-4.463l-2.811-0.677l-1.121,4.344c-0.74-0.178-1.499-0.345-2.252-0.511l1.128-4.375
				l-2.81-0.677l-1.152,4.461c-0.612-0.134-1.213-0.268-1.795-0.407l0.002-0.014l-3.877-0.936l-0.749,2.901
				c0,0,2.087,0.462,2.043,0.491c1.139,0.274,1.344,1.002,1.31,1.58l-1.312,5.084c0.078,0.02,0.18,0.045,0.292,0.09
				c-0.093-0.022-0.193-0.046-0.297-0.07l-1.839,7.121c-0.14,0.334-0.492,0.836-1.288,0.645c0.028,0.04-2.043-0.492-2.043-0.492
				l-1.396,3.108l3.658,0.882c0.68,0.164,1.349,0.337,2.005,0.499l-1.164,4.515l2.811,0.678l1.151-4.467
				c0.768,0.201,1.512,0.387,2.24,0.562l-1.146,4.444l2.811,0.677l1.164-4.505c4.793,0.876,8.399,0.522,9.916-3.667
				c1.224-3.373-0.061-5.319-2.582-6.588C59.569,32.935,60.952,31.767,61.322,29.355z M54.898,38.059
				c-0.869,3.374-6.748,1.551-8.654,1.092l1.544-5.979C49.695,33.631,55.806,34.541,54.898,38.059z M55.769,29.307
				c-0.793,3.068-5.687,1.509-7.273,1.126l1.4-5.422C51.48,25.393,56.592,26.105,55.769,29.307z"/>
		</g>
	</g>
</g>
</svg>
