<?xml version="1.0" encoding="utf-8"?>
<!-- Generator: Adobe Illustrator 16.0.0, SVG Export Plug-In . SVG Version: 6.00 Build 0)  -->
<!DOCTYPE svg PUBLIC "-//W3C//DTD SVG 1.1//EN" "http://www.w3.org/Graphics/SVG/1.1/DTD/svg11.dtd">
<svg version="1.1" id="Layer_1" xmlns="http://www.w3.org/2000/svg" xmlns:xlink="http://www.w3.org/1999/xlink" x="0px" y="0px"
	 width="68px" height="64px" viewBox="0 0 68 64" enable-background="new 0 0 68 64" xml:space="preserve">
<path fill="none" stroke="#CCCCCC" stroke-width="0.5" stroke-miterlimit="10" d="M41.238,0.59c0,0-1.812,7.485-7.377,7.485"/>
<path fill="none" stroke="#CCCCCC" stroke-width="0.5" stroke-miterlimit="10" d="M26.63,0.59c0,0,1.81,7.485,7.377,7.485"/>
<path fill="none" stroke="#CCCCCC" stroke-width="0.5" stroke-miterlimit="10" d="M39.684,0.304c0,0-1.979,5.293-5.544,5.293"/>
<path fill="none" stroke="#CCCCCC" stroke-width="0.5" stroke-miterlimit="10" d="M28.516,0.304c0,0,1.977,5.293,5.543,5.293"/>
<path fill="#FFFFFF" stroke="#CCCCCC" stroke-width="0.7" stroke-miterlimit="10" d="M52.762,3.64c0,0-3.74,6.2,1.66,18.478"/>
<line fill="none" stroke="#CCCCCC" stroke-width="0.7" stroke-miterlimit="10" x1="64.611" y1="8.468" x2="60.166" y2="22.72"/>
<path fill="#FFFFFF" stroke="#CCCCCC" stroke-width="0.7" stroke-miterlimit="10" d="M15.353,3.64c0,0,3.739,6.2-1.661,18.478"/>
<line fill="none" stroke="#CCCCCC" stroke-width="0.7" stroke-miterlimit="10" x1="3.501" y1="8.468" x2="7.947" y2="22.72"/>
<line fill="none" stroke="#CCCCCC" stroke-miterlimit="10" x1="54.422" y1="60.5" x2="13.855" y2="60.5"/>
<g>
	<path fill="#808080" d="M39.889,1.085L53.445,4.59l13.316,5.424l-3.898,11.979l-7.736-0.986L54,20.864V22v41H14V22v-1.136
		l-1.126,0.144l-7.736,0.986L1.239,10.015l13.315-5.424l13.558-3.505c0.844,0.554,2.861,1.62,5.888,1.62
		C37.025,2.706,39.044,1.64,39.889,1.085 M39.686,0c0,0-2.004,1.706-5.686,1.706C30.318,1.706,28.314,0,28.314,0L14.239,3.64
		L0,9.439L4.442,23.09L13,22v42h42V22l8.559,1.091L68,9.439l-14.238-5.8L39.686,0L39.686,0z"/>
</g>
</svg>
