<?xml version="1.0" encoding="utf-8"?>
<!-- Generator: Adobe Illustrator 16.0.0, SVG Export Plug-In . SVG Version: 6.00 Build 0)  -->
<!DOCTYPE svg PUBLIC "-//W3C//DTD SVG 1.1//EN" "http://www.w3.org/Graphics/SVG/1.1/DTD/svg11.dtd">
<svg version="1.1" id="Layer_1" xmlns="http://www.w3.org/2000/svg" xmlns:xlink="http://www.w3.org/1999/xlink" x="0px" y="0px"
	 width="110px" height="64px" viewBox="0 0 110 64" enable-background="new 0 0 110 64" xml:space="preserve">
<g>
	<path fill="#FFFFFF" d="M12.596,60C10.851,60,10,59.035,10,58.285V2.571C10,1.429,11.44,1,12.596,1h84.808
		C98.56,1,99,1.429,99,2.571v55.714C99,59.035,99.149,60,97.404,60H12.596z"/>
	<path fill="#808080" d="M97.202,1C98.082,1,99,1.705,99,2.571v55.714C99,58.62,99,59,97.404,59H12.596C11,59,11,58.62,11,58.285
		V2.571C11,1.705,11.716,1,12.596,1H97 M97.404,0H12.596C11.162,0,10,1.151,10,2.571v55.714C10,59.705,11.162,60,12.596,60h84.808
		c1.434,0,2.596-0.295,2.596-1.715V2.571C100,1.151,98.838,0,97.404,0L97.404,0z"/>
</g>
<g>
	<rect x="14" y="5" fill="#FFFFFF" width="81" height="51"/>
	<path fill="#CCCCCC" d="M95,5v50H15V5H95 M96,4H14v52h82V4L96,4z"/>
</g>
<g>
	<path fill="#FFFFFF" d="M6.928,63.5c-3.045,0-4.802-1.017-5.739-1.87L1.046,61.5H0.5v-2h109v2h-0.546l-0.143,0.13
		c-0.938,0.854-2.695,1.87-5.74,1.87H6.928z"/>
	<path fill="#808080" d="M109,60v1h-0.239l-0.286,0.26c-0.873,0.794-2.519,1.74-5.403,1.74H60H49.541H6.928
		c-2.885,0-4.53-0.946-5.403-1.739L1.239,61H1v-1H109 M110,59H0v3h0.853c0.959,0.873,2.824,2,6.076,2c3.711,0,28.235,0,42.613,0
		C55.701,64,60,64,60,64c14.499,0,39.352,0,43.071,0c3.251,0,5.116-1.127,6.076-2H110V59L110,59z"/>
</g>
<circle opacity="0.5" fill="#666666" cx="55" cy="2.501" r="0.75"/>
</svg>
