<?xml version="1.0" encoding="utf-8"?>
<!-- Generator: Adobe Illustrator 16.0.0, SVG Export Plug-In . SVG Version: 6.00 Build 0)  -->
<!DOCTYPE svg PUBLIC "-//W3C//DTD SVG 1.1//EN" "http://www.w3.org/Graphics/SVG/1.1/DTD/svg11.dtd">
<svg version="1.1" id="Layer_1" xmlns="http://www.w3.org/2000/svg" xmlns:xlink="http://www.w3.org/1999/xlink" x="0px" y="0px"
	 width="11px" height="9px" viewBox="0 0 11 9" enable-background="new 0 0 11 9" xml:space="preserve">
<path fill-rule="evenodd" clip-rule="evenodd" fill="#616161" d="M11,9C7.334,9,3.666,9,0,9c0.123-0.333,0.113-0.632,0.25-0.906
	c0.132-0.262,0.44-0.479,0.694-0.595C1.27,7.351,1.727,7.29,2.167,7.159c0.384-0.115,0.841-0.198,1.111-0.396
	c0.23-0.17,0.3-0.476,0.527-0.596c0.16-0.085,0.311-0.013,0.473-0.17c0.098-0.723-0.346-0.894-0.334-1.53
	c-0.07-0.069-0.175-0.125-0.25-0.254C3.531,3.931,3.384,3.341,3.445,3.052c0.033-0.161,0.124-0.14,0.139-0.257
	C3.451,1.498,3.705,0.636,4.527,0.247c0.325-0.153,1.102-0.303,1.555-0.227c0.141,0.022,0.306,0.177,0.502,0.227
	c0.162,0.04,0.315,0.007,0.443,0.057C7.323,0.418,7.594,0.734,7.722,1.04C7.915,1.5,7.825,2.138,7.806,2.769
	C8.16,2.813,8.047,3.137,8,3.533C7.958,3.885,7.886,4.141,7.75,4.297C7.728,4.37,7.58,4.312,7.583,4.411
	C7.491,4.997,7.054,5.23,7.111,5.969c0.178,0.084,0.344,0.108,0.472,0.228c0.138,0.127,0.165,0.351,0.334,0.452
	C8.29,6.728,8.593,7.036,8.999,7.159C9.219,7.224,9.478,7.2,9.694,7.272c0.143,0.047,0.342,0.189,0.528,0.283
	c0.211,0.105,0.42,0.18,0.527,0.312C10.977,8.146,10.9,8.649,11,9z"/>
<g opacity="0.7">
	<path fill-rule="evenodd" clip-rule="evenodd" fill="#242424" d="M7.583,6.196C7.51,6.129,7.423,6.09,7.331,6.056
		C7.2,6.302,7.079,6.557,7.111,6.969c0.178,0.084,0.344,0.108,0.472,0.228c0.138,0.127,0.165,0.351,0.334,0.452
		C8.29,7.728,8.593,8.036,8.999,8.159C9.219,8.224,9.478,8.2,9.694,8.272c0.143,0.047,0.342,0.189,0.528,0.283
		c0.211,0.105,0.42,0.18,0.527,0.312C10.78,8.905,10.795,8.955,10.815,9C10.877,9,10.938,9,11,9c-0.1-0.351-0.023-0.854-0.25-1.133
		c-0.107-0.132-0.316-0.206-0.527-0.312c-0.187-0.094-0.386-0.236-0.528-0.283C9.478,7.2,9.219,7.224,8.999,7.159
		C8.593,7.036,8.29,6.728,7.917,6.648C7.748,6.547,7.721,6.323,7.583,6.196z"/>
	<path fill-rule="evenodd" clip-rule="evenodd" fill="#242424" d="M7.806,3.769c0.064,0.008,0.1,0.035,0.136,0.06
		C7.963,3.735,7.986,3.647,8,3.533c0.045-0.378,0.138-0.682-0.16-0.75C7.844,3.096,7.816,3.432,7.806,3.769z"/>
	<path fill-rule="evenodd" clip-rule="evenodd" fill="#242424" d="M4.527,1.247c0.325-0.153,1.102-0.303,1.555-0.227
		c0.141,0.022,0.306,0.177,0.502,0.227c0.162,0.04,0.315,0.007,0.443,0.057C7.323,1.418,7.594,1.734,7.722,2.04
		c0.052,0.124,0.081,0.261,0.1,0.406c0.027-0.521,0.061-1.025-0.1-1.406C7.594,0.734,7.323,0.418,7.027,0.304
		c-0.128-0.05-0.281-0.017-0.443-0.057c-0.196-0.05-0.361-0.204-0.502-0.227C5.629-0.056,4.853,0.094,4.527,0.247
		C3.708,0.634,3.455,1.492,3.583,2.779C3.661,2.045,3.946,1.522,4.527,1.247z"/>
	<path fill-rule="evenodd" clip-rule="evenodd" fill="#242424" d="M3.584,3.795C3.547,3.432,3.549,3.111,3.576,2.817
		C3.552,2.906,3.476,2.904,3.445,3.052C3.403,3.25,3.462,3.585,3.554,3.87C3.568,3.851,3.58,3.83,3.584,3.795z"/>
	<path fill-rule="evenodd" clip-rule="evenodd" fill="#242424" d="M0.944,8.499C1.27,8.351,1.727,8.29,2.167,8.159
		c0.384-0.115,0.841-0.198,1.111-0.396c0.23-0.17,0.3-0.476,0.527-0.596c0.16-0.085,0.311-0.013,0.473-0.17
		c0.057-0.42-0.066-0.656-0.18-0.903C4.001,6.118,3.905,6.114,3.806,6.167c-0.228,0.12-0.297,0.426-0.527,0.596
		C3.008,6.961,2.551,7.044,2.167,7.159C1.727,7.29,1.27,7.351,0.944,7.499C0.69,7.614,0.382,7.832,0.25,8.094
		C0.113,8.368,0.123,8.667,0,9c0.104,0,0.209,0,0.314,0C0.465,8.781,0.722,8.6,0.944,8.499z"/>
</g>
</svg>
