<?xml version="1.0" encoding="utf-8"?>
<!-- Generator: Adobe Illustrator 16.0.0, SVG Export Plug-In . SVG Version: 6.00 Build 0)  -->
<!DOCTYPE svg PUBLIC "-//W3C//DTD SVG 1.1//EN" "http://www.w3.org/Graphics/SVG/1.1/DTD/svg11.dtd">
<svg version="1.1" id="Layer_1" xmlns="http://www.w3.org/2000/svg" xmlns:xlink="http://www.w3.org/1999/xlink" x="0px" y="0px"
	 width="66px" height="66px" viewBox="0 0 66 66" enable-background="new 0 0 66 66" xml:space="preserve">
<path fill="#FFFFFF" stroke="#808080" stroke-miterlimit="10" d="M54.244,7.005c0.009-0.053-0.639,0.789-0.488,0.704
	c-0.146,0.268-0.28,0.577-0.376,0.95c-0.256,0.959-0.515,1.366-0.645,1.524L29.19,32.574l4.372,4.338l22.652-23.208
	c0,0,0.261-0.393,1.552-0.837c0.251-0.087,0.452-0.202,0.663-0.313c-0.046,0.113,1.862-1.632,2.172-2.089
	c1.797-2.652,2.145-2.881,2.84-4.066c0.109-0.178-0.517-0.839-1.228-1.478c-0.048-0.04-0.095-0.079-0.143-0.121
	c-0.437-0.386-0.89-0.752-1.224-0.992c-0.021-0.021-0.031-0.032-0.053-0.043c-0.715-0.615-1.078-1.126-1.344-0.938
	C58.333,3.602,58,3.932,55.494,5.917C55.081,6.24,54.638,6.557,54.244,7.005z"/>
<path fill="#FFFFFF" stroke="#808080" stroke-miterlimit="10" d="M43.1,34.502c-1.288-1.984-2.296-3.348-3.261-4.062l0,0
	l-1.617-1.607l-0.571-0.565l-1.617-1.608c0,0-2.09-1.962-4.089-3.239c-3.939-2.522-7.923,3.408-9.679,5.128
	C19.486,31.284,11.21,27.579,4.6,35.204c-8.46,9.759,1.543,20.189,3.445,21.982c0.205,0.209,0.379,0.384,0.534,0.529
	c0.147,0.156,0.322,0.325,0.535,0.533c1.802,1.892,12.298,11.826,22.123,3.423c7.678-6.568,3.945-14.789,6.701-17.554
	C39.674,42.376,45.637,38.414,43.1,34.502z"/>
<path fill="#FFFFFF" stroke="#B3B3B3" stroke-width="0.8" stroke-miterlimit="10" d="M36.815,25.271l-9.448,9.041l4.37,4.339
	c0,0,9.188-9.268,9.18-9.273"/>
<circle fill="#FFFFFF" cx="27.639" cy="38.394" r="4.41"/>
<circle fill="#FFFFFF" stroke="#BFBFBF" stroke-miterlimit="10" cx="27.639" cy="38.394" r="4.41"/>
<polygon fill="#FFFFFF" stroke="#BFBFBF" stroke-width="0.8" stroke-miterlimit="10" points="20.861,49.054 16.462,44.655 
	16.447,42.316 23.2,49.068 "/>
<polygon opacity="0.5" fill="#FFFFFF" stroke="#666666" stroke-width="0.8" stroke-miterlimit="10" points="63.606,10.208 
	63.053,8.479 63.271,8.261 65,8.813 "/>
<polygon opacity="0.5" fill="#FFFFFF" stroke="#666666" stroke-width="0.8" stroke-miterlimit="10" points="61.253,12.562 
	60.699,10.832 60.918,10.613 62.647,11.166 "/>
<polygon opacity="0.5" fill="#FFFFFF" stroke="#666666" stroke-width="0.8" stroke-miterlimit="10" points="55.791,2.395 
	57.521,2.947 57.739,2.729 57.186,1 "/>
<polygon opacity="0.5" fill="#FFFFFF" stroke="#666666" stroke-width="0.8" stroke-miterlimit="10" points="53.438,4.748 
	55.168,5.301 55.387,5.083 54.833,3.354 "/>
</svg>
