<?xml version="1.0" encoding="utf-8"?>
<!-- Generator: Adobe Illustrator 16.0.0, SVG Export Plug-In . SVG Version: 6.00 Build 0)  -->
<!DOCTYPE svg PUBLIC "-//W3C//DTD SVG 1.1//EN" "http://www.w3.org/Graphics/SVG/1.1/DTD/svg11.dtd">
<svg version="1.1" id="Layer_1" xmlns="http://www.w3.org/2000/svg" xmlns:xlink="http://www.w3.org/1999/xlink" x="0px" y="0px"
	 width="84px" height="64px" viewBox="0 0 84 64" enable-background="new 0 0 84 64" xml:space="preserve">
<g>
	<g>
		<path fill="#808080" d="M60.619,1c1.68,0.401,2.309,0.901,2.536,1.167c1.935,2.262,5.13,8.023,6.588,11.469l0.201,0.475
			l0.503,0.112C81.987,16.786,82.943,24.87,83,25.5v32.4C83,62.857,78.713,63,78.212,63H6.729c-4.946,0-5.248-0.843-5.704-2.117
			L1,60.812L0.999,25.191c0.092-0.812,2.195-6.034,3.565-7.201c0.972-0.83,6.275-1.962,9.749-2.504
			c0.181-0.017,1.181-0.11,2.792-0.249l15.116-1.129c1.47-0.093,2.99-0.184,4.534-0.269l0.617-0.034l0.246-0.567
			c2.688-6.199,5.261-10.426,6.882-11.306C45.126,1.593,46.276,1.263,47.745,1H60.619 M60.734,0H47.657
			c-1.572,0.276-2.865,0.637-3.634,1.053c-2.578,1.398-5.864,8.42-7.324,11.788c-1.547,0.085-3.069,0.177-4.542,0.27l-15.128,1.13
			c-1.802,0.154-2.841,0.253-2.841,0.253s-8.645,1.345-10.274,2.736C2.282,18.62,0,24.363,0,25.151v35.836
			C0.622,62.686,0.807,64,6.729,64c5.903,0,71.482,0,71.482,0s0.004,0,0.012,0C78.518,64,84,63.92,84,57.899
			c0-7.023,0-32.44,0-32.44s-0.641-9.393-13.336-12.213c-1.543-3.647-4.787-9.436-6.749-11.729C63.328,0.83,62.189,0.335,60.734,0
			L60.734,0z"/>
	</g>
</g>
<g>
	<path fill="#FFFFFF" d="M10.323,23.029c-1.636,0-2.858-0.526-2.971-1.28c-0.141-0.938,1.441-2.262,4.02-2.738
		c0.547-0.101,1.087-0.152,1.607-0.152c1.637,0,2.859,0.526,2.971,1.279c0.141,0.936-1.441,2.26-4.021,2.738
		C11.383,22.978,10.842,23.029,10.323,23.029z"/>
	<path fill="#CCCCCC" d="M12.979,19.159L12.979,19.159c1.638,0,2.601,0.527,2.675,1.023c0.104,0.69-1.284,1.936-3.779,2.398
		c-0.528,0.098-1.05,0.148-1.551,0.148c-1.637,0-2.6-0.528-2.674-1.024c-0.104-0.691,1.284-1.938,3.778-2.398
		C11.956,19.209,12.478,19.159,12.979,19.159 M12.979,18.559c-0.523,0-1.084,0.051-1.662,0.158
		c-2.538,0.469-4.446,1.846-4.262,3.077c0.143,0.95,1.492,1.535,3.268,1.535c0.523,0,1.083-0.051,1.661-0.158
		c2.539-0.471,4.447-1.847,4.263-3.077C16.105,19.143,14.756,18.559,12.979,18.559L12.979,18.559z"/>
</g>
<path fill="#FFFFFF" stroke="#808080" stroke-miterlimit="10" d="M53,55c-9.924,0-18-8.073-18-18s8.076-18,18-18
	c9.925,0,18,8.073,18,18S62.925,55,53,55L53,55z"/>
<path fill="#FFFFFF" stroke="#CCCCCC" stroke-width="0.6" stroke-miterlimit="10" d="M53,22.64c-7.92,0-14.359,6.441-14.359,14.36
	S45.08,51.36,53,51.36S67.361,44.919,67.361,37S60.92,22.64,53,22.64L53,22.64z"/>
<path fill="#FFFFFF" stroke="#CCCCCC" stroke-miterlimit="10" d="M36.93,13.152C41.521,10.048,47.053,8.233,53,8.233
	c6.39,0,12.299,2.094,17.078,5.632"/>
<path fill="#FFFFFF" stroke="#CCCCCC" stroke-miterlimit="10" d="M22.725,15.075c0,0,0.244,8.298-2.787,9.951l-0.173,37.857"/>
</svg>
