<?xml version="1.0" encoding="utf-8"?>
<!-- Generator: Adobe Illustrator 16.0.0, SVG Export Plug-In . SVG Version: 6.00 Build 0)  -->
<!DOCTYPE svg PUBLIC "-//W3C//DTD SVG 1.1//EN" "http://www.w3.org/Graphics/SVG/1.1/DTD/svg11.dtd">
<svg version="1.1" id="Layer_1" xmlns="http://www.w3.org/2000/svg" xmlns:xlink="http://www.w3.org/1999/xlink" x="0px" y="0px"
	 width="78px" height="64px" viewBox="0 0 78 64" enable-background="new 0 0 78 64" xml:space="preserve">
<g>
	<path fill="#808080" d="M56.38-0.117v1h0.001c9.82,0,17.346,2.31,18.947,4.543c2.655,3.706,2.229,12.241-1.063,21.238
		c-2.284,6.246-7.896,18-19.808,26.537c-11.753,8.424-25.217,9.682-32.197,9.682c-10.488,0-17.874-2.648-19.749-5.264
		c-4.123-5.753,1.487-32.854,21.357-47.095C35.571,2.136,49.26,0.883,56.378,0.883L56.38-0.117 M56.378-0.117
		c-10.353,0-22.895,2.52-33.092,9.828C3.293,24.041-2.89,51.799,1.698,58.201c2.27,3.166,10.451,5.682,20.562,5.682
		c10.331,0,22.676-2.627,32.78-9.869c19.993-14.33,26.744-41.295,21.101-49.17C74.25,2.207,66.325-0.118,56.378-0.117L56.378-0.117z
		"/>
</g>
<path fill="#FFFFFF" stroke="#CCCCCC" stroke-width="0.6" stroke-miterlimit="10" d="M76.141,4.844c0,0-51.241,5.084-74.93,52.678"
	/>
<path fill="#FFFFFF" stroke="#CCCCCC" stroke-miterlimit="10" d="M16.132,38.57c-0.693,0.497-1.661,0.473-2.332-0.112
	c-0.784-0.683-0.865-1.871-0.183-2.655c0.645-0.739,15.997-18.2,33.867-24.491c0.98-0.346,2.055,0.169,2.399,1.15
	c0.346,0.98-0.167,2.057-1.149,2.4c-16.921,5.957-32.128,23.239-32.279,23.414C16.356,38.389,16.248,38.486,16.132,38.57z"/>
<path fill="#FFFFFF" stroke="#CCCCCC" stroke-width="0.6" stroke-miterlimit="10" d="M16.132,38.57
	c-0.693,0.497-1.661,0.473-2.332-0.112c-0.784-0.683-0.865-1.871-0.183-2.655c0.645-0.739,15.997-18.2,33.867-24.491
	c0.98-0.346,2.055,0.169,2.399,1.15c0.346,0.98-0.167,2.057-1.149,2.4c-16.921,5.957-32.128,23.239-32.279,23.414
	C16.356,38.389,16.248,38.486,16.132,38.57z"/>
<path fill="#FFFFFF" stroke="#CCCCCC" stroke-miterlimit="10" d="M19.658,40.184c-0.315,0.227-0.746,0.267-1.109,0.068
	c-4.328-2.36-5.281-7.206-5.319-7.411c-0.106-0.567,0.268-1.113,0.835-1.221c0.566-0.105,1.112,0.267,1.22,0.833
	c0.012,0.062,0.835,4.092,4.265,5.963c0.508,0.276,0.694,0.912,0.418,1.418C19.889,39.978,19.782,40.095,19.658,40.184z"/>
<path fill="#FFFFFF" stroke="#CCCCCC" stroke-miterlimit="10" d="M23.379,36.761c-0.364,0.262-0.87,0.267-1.245-0.02
	c-2.012-1.539-4.949-6.712-5.278-7.297c-0.282-0.504-0.106-1.142,0.4-1.424c0.504-0.283,1.141-0.104,1.423,0.399
	c0.835,1.484,3.311,5.576,4.726,6.66c0.46,0.351,0.547,1.008,0.195,1.466C23.535,36.631,23.461,36.702,23.379,36.761z"/>
<path fill="#FFFFFF" stroke="#CCCCCC" stroke-miterlimit="10" d="M27.57,33.756c-0.373,0.269-0.895,0.266-1.269-0.039
	c-2.192-1.787-5.132-7.059-5.256-7.282c-0.28-0.505-0.098-1.14,0.406-1.422c0.505-0.28,1.142-0.098,1.422,0.407
	c0.792,1.425,3.188,5.403,4.748,6.676c0.448,0.364,0.516,1.022,0.15,1.471C27.713,33.64,27.645,33.703,27.57,33.756z"/>
<path fill="#FFFFFF" stroke="#CCCCCC" stroke-miterlimit="10" d="M31.428,29.776c-0.017,0.012-0.034,0.024-0.053,0.036
	c-0.488,0.307-1.134,0.16-1.441-0.328c-1.731-2.75-4.162-6.256-4.187-6.291c-0.33-0.475-0.205-1.114,0.262-1.455
	c0.475-0.329,1.126-0.212,1.455,0.264c0.025,0.035,2.482,3.578,4.239,6.368C31.999,28.841,31.874,29.456,31.428,29.776z"/>
<path fill="#FFFFFF" stroke="#CCCCCC" stroke-miterlimit="10" d="M35.639,26.943c-0.017,0.012-0.034,0.025-0.052,0.035
	c-0.488,0.309-1.134,0.162-1.441-0.326c-0.622-0.985-4.239-6.836-4.393-7.084c-0.304-0.491-0.151-1.137,0.339-1.439
	c0.491-0.304,1.136-0.151,1.439,0.34c0.038,0.061,3.766,6.091,4.382,7.068C36.21,26.007,36.086,26.623,35.639,26.943z"/>
<path fill="#FFFFFF" stroke="#CCCCCC" stroke-miterlimit="10" d="M40.941,24.173c-0.085,0.062-0.181,0.11-0.286,0.144
	c-0.549,0.18-1.139-0.12-1.317-0.67c-1.173-3.6-4.635-6.464-4.67-6.493c-0.446-0.365-0.513-1.023-0.147-1.471
	c0.364-0.447,1.023-0.514,1.471-0.149c0.161,0.132,3.968,3.272,5.335,7.466C41.471,23.443,41.302,23.914,40.941,24.173z"/>
<path fill="#FFFFFF" stroke="#CCCCCC" stroke-miterlimit="10" d="M45.492,21.666c-0.046,0.033-0.096,0.064-0.149,0.089
	c-0.518,0.255-1.145,0.042-1.399-0.477c-2.775-5.648-4.929-7.025-4.95-7.037c-0.498-0.293-0.665-0.933-0.373-1.432
	c0.292-0.498,0.934-0.664,1.431-0.372c0.271,0.158,2.728,1.728,5.771,7.919C46.05,20.821,45.9,21.374,45.492,21.666z"/>
<path fill="#FFFFFF" stroke="#CCCCCC" stroke-miterlimit="10" d="M49.798,18.581c-0.059,0.041-0.122,0.078-0.191,0.108
	c-0.529,0.231-1.146-0.01-1.376-0.539c-2.342-5.354-4.138-6.104-4.155-6.11c0.038,0.015,0.058,0.018,0.058,0.018l0.526-2.023
	c0.434,0.113,2.738,0.994,5.486,7.278C50.348,17.772,50.19,18.299,49.798,18.581z"/>
<path fill="#FFFFFF" stroke="#CCCCCC" stroke-width="0.6" stroke-miterlimit="10" d="M19.658,40.184
	c-0.315,0.227-0.746,0.267-1.109,0.068c-4.328-2.36-5.281-7.206-5.319-7.411c-0.106-0.567,0.268-1.113,0.835-1.221
	c0.566-0.105,1.112,0.267,1.22,0.833c0.012,0.062,0.835,4.092,4.265,5.963c0.508,0.276,0.694,0.912,0.418,1.418
	C19.889,39.978,19.782,40.095,19.658,40.184z"/>
<path fill="#FFFFFF" stroke="#CCCCCC" stroke-width="0.6" stroke-miterlimit="10" d="M23.379,36.761
	c-0.364,0.262-0.87,0.267-1.245-0.02c-2.012-1.539-4.949-6.712-5.278-7.297c-0.282-0.504-0.106-1.142,0.4-1.424
	c0.504-0.283,1.141-0.104,1.423,0.399c0.835,1.484,3.311,5.576,4.726,6.66c0.46,0.351,0.547,1.008,0.195,1.466
	C23.535,36.631,23.461,36.702,23.379,36.761z"/>
<path fill="#FFFFFF" stroke="#CCCCCC" stroke-width="0.6" stroke-miterlimit="10" d="M27.57,33.756
	c-0.373,0.269-0.895,0.266-1.269-0.039c-2.192-1.787-5.132-7.059-5.256-7.282c-0.28-0.505-0.098-1.14,0.406-1.422
	c0.505-0.28,1.142-0.098,1.422,0.407c0.792,1.425,3.188,5.403,4.748,6.676c0.448,0.364,0.516,1.022,0.15,1.471
	C27.713,33.64,27.645,33.703,27.57,33.756z"/>
<path fill="#FFFFFF" stroke="#CCCCCC" stroke-width="0.6" stroke-miterlimit="10" d="M31.428,29.776
	c-0.017,0.012-0.034,0.024-0.053,0.036c-0.488,0.307-1.134,0.16-1.441-0.328c-1.731-2.75-4.162-6.256-4.187-6.291
	c-0.33-0.475-0.205-1.114,0.262-1.455c0.475-0.329,1.126-0.212,1.455,0.264c0.025,0.035,2.482,3.578,4.239,6.368
	C31.999,28.841,31.874,29.456,31.428,29.776z"/>
<path fill="#FFFFFF" stroke="#CCCCCC" stroke-width="0.6" stroke-miterlimit="10" d="M35.639,26.943
	c-0.017,0.012-0.034,0.025-0.052,0.035c-0.488,0.309-1.134,0.162-1.441-0.326c-0.622-0.985-4.239-6.836-4.393-7.084
	c-0.304-0.491-0.151-1.137,0.339-1.439c0.491-0.304,1.136-0.151,1.439,0.34c0.038,0.061,3.766,6.091,4.382,7.068
	C36.21,26.007,36.086,26.623,35.639,26.943z"/>
<path fill="#FFFFFF" stroke="#CCCCCC" stroke-width="0.6" stroke-miterlimit="10" d="M40.941,24.173
	c-0.085,0.062-0.181,0.11-0.286,0.144c-0.549,0.18-1.139-0.12-1.317-0.67c-1.173-3.6-4.635-6.464-4.67-6.493
	c-0.446-0.365-0.513-1.023-0.147-1.471c0.364-0.447,1.023-0.514,1.471-0.149c0.161,0.132,3.968,3.272,5.335,7.466
	C41.471,23.443,41.302,23.914,40.941,24.173z"/>
<path fill="#FFFFFF" stroke="#CCCCCC" stroke-width="0.6" stroke-miterlimit="10" d="M45.492,21.666
	c-0.046,0.033-0.096,0.064-0.149,0.089c-0.518,0.255-1.145,0.042-1.399-0.477c-2.775-5.648-4.929-7.025-4.95-7.037
	c-0.498-0.293-0.665-0.933-0.373-1.432c0.292-0.498,0.934-0.664,1.431-0.372c0.271,0.158,2.728,1.728,5.771,7.919
	C46.05,20.821,45.9,21.374,45.492,21.666z"/>
<path fill="#FFFFFF" stroke="#CCCCCC" stroke-width="0.6" stroke-miterlimit="10" d="M49.798,18.581
	c-0.059,0.041-0.122,0.078-0.191,0.108c-0.529,0.231-1.146-0.01-1.376-0.539c-2.342-5.354-4.138-6.104-4.155-6.11
	c0.038,0.015,0.058,0.018,0.058,0.018l0.526-2.023c0.434,0.113,2.738,0.994,5.486,7.278C50.348,17.772,50.19,18.299,49.798,18.581z"
	/>
</svg>
